<svg width="43" height="43" viewBox="0 0 43 43" fill="none" xmlns="http://www.w3.org/2000/svg">
<circle cx="21.5" cy="21.5" r="21.5" fill="url(#paint0_radial_167_1479)" fill-opacity="0.8"/>
<path opacity="0.7" d="M24.6779 30.3877C25.1683 29.8791 25.1457 29.067 24.6277 28.5865L20.6894 24.9331C18.6374 23.0295 18.5476 19.8122 20.4904 17.7971L24.2188 13.9299C24.7095 13.4209 24.6866 12.6083 24.1681 12.1277C23.6639 11.6605 22.8784 11.6825 22.4012 12.1774L16.8858 17.8973C14.9427 19.9125 15.0326 23.1304 17.0852 25.034L22.9113 30.4371C23.4153 30.9045 24.2008 30.8826 24.6779 30.3877Z" fill="white"/>
<path opacity="0.7" d="M19.9456 3.39834C29.8413 2.62726 38.5185 10.0499 39.2895 19.9456C40.0606 29.8413 32.638 38.5185 22.7422 39.2895C12.8465 40.0606 4.1694 32.638 3.39832 22.7423C2.62725 12.8465 10.0499 4.16941 19.9456 3.39834ZM22.5425 36.7259C31.0243 36.065 37.3868 28.6272 36.7259 20.1454C36.065 11.6635 28.6272 5.30109 20.1454 5.962C11.6635 6.6229 5.30107 14.0606 5.96198 22.5425C6.62289 31.0244 14.0606 37.3868 22.5425 36.7259Z" fill="white"/>
<defs>
<radialGradient id="paint0_radial_167_1479" cx="0" cy="0" r="1" gradientUnits="userSpaceOnUse" gradientTransform="translate(21.5 21.5) rotate(90) scale(21.5)">
<stop stop-color="#FF5DE2"/>
<stop offset="1" stop-color="white" stop-opacity="0.2"/>
</radialGradient>
</defs>
</svg>
