<svg width="43" height="43" viewBox="0 0 43 43" fill="none" xmlns="http://www.w3.org/2000/svg">
<circle cx="21.5" cy="21.5" r="21.5" fill="url(#paint0_radial_167_1475)" fill-opacity="0.8"/>
<path opacity="0.7" d="M18.1854 12.7814C17.6669 13.2613 17.6433 14.0733 18.1331 14.5825L21.8574 18.4538C23.798 20.471 23.7047 23.6882 21.6506 25.5896L17.7084 29.2387C17.1896 29.7189 17.1663 30.5316 17.6566 31.0408C18.1335 31.536 18.9189 31.5586 19.4234 31.0916L25.255 25.6944C27.3096 23.7929 27.4027 20.5751 25.4616 18.5579L19.952 12.8325C19.4753 12.3372 18.6899 12.3144 18.1854 12.7814Z" fill="white"/>
<path opacity="0.7" d="M20.9925 39.5057C11.0709 39.2185 3.23359 30.914 3.52076 20.9925C3.80793 11.0709 12.1124 3.2336 22.034 3.52077C31.9556 3.80793 39.7929 12.1124 39.5057 22.034C39.2185 31.9556 30.914 39.7929 20.9925 39.5057ZM21.9596 6.09112C13.4556 5.84498 6.33725 12.5628 6.09111 21.0669C5.84498 29.5709 12.5628 36.6892 21.0669 36.9353C29.5709 37.1815 36.6892 30.4636 36.9353 21.9596C37.1815 13.4556 30.4636 6.33726 21.9596 6.09112Z" fill="white"/>
<defs>
<radialGradient id="paint0_radial_167_1475" cx="0" cy="0" r="1" gradientUnits="userSpaceOnUse" gradientTransform="translate(21.5 21.5) rotate(90) scale(21.5)">
<stop stop-color="#FF5DE2"/>
<stop offset="1" stop-color="white" stop-opacity="0.2"/>
</radialGradient>
</defs>
</svg>
