<svg width="95" height="29" viewBox="0 0 95 29" fill="none" xmlns="http://www.w3.org/2000/svg">
<path d="M5.77145 23.6C4.61145 23.6 3.60145 23.39 2.74145 22.97C1.88145 22.53 1.21145 21.87 0.731445 20.99C0.271445 20.09 0.0414453 18.95 0.0414453 17.57C0.0414453 16.31 0.221445 15.06 0.581445 13.82C0.941445 12.56 1.48145 11.43 2.20145 10.43C2.94145 9.43 3.87145 8.63 4.99145 8.03C6.11145 7.41 7.44145 7.1 8.98145 7.1C9.78145 7.1 10.5114 7.21 11.1714 7.43C11.8314 7.63 12.3514 7.99 12.7314 8.51C13.1314 9.03 13.3314 9.74 13.3314 10.64C13.3314 11.74 13.0014 12.68 12.3414 13.46C11.7014 14.24 10.8114 14.84 9.67145 15.26C8.53145 15.66 7.22145 15.87 5.74145 15.89C5.50145 15.91 5.23145 15.92 4.93145 15.92C4.63145 15.9 4.37145 15.88 4.15145 15.86C4.13145 16.16 4.11145 16.46 4.09145 16.76C4.07145 17.04 4.06145 17.29 4.06145 17.51C4.06145 18.55 4.25145 19.36 4.63145 19.94C5.03145 20.5 5.74145 20.78 6.76145 20.78C7.60145 20.78 8.37145 20.58 9.07145 20.18C9.79145 19.78 10.3414 19.23 10.7214 18.53C11.0014 18.61 11.1914 18.78 11.2914 19.04C11.3914 19.28 11.4414 19.53 11.4414 19.79C11.4414 20.45 11.2014 21.07 10.7214 21.65C10.2614 22.23 9.61145 22.7 8.77145 23.06C7.93145 23.42 6.93145 23.6 5.77145 23.6ZM4.36145 14.45C5.04145 14.45 5.70145 14.37 6.34145 14.21C6.98145 14.03 7.55145 13.78 8.05145 13.46C8.57145 13.14 8.98145 12.73 9.28145 12.23C9.58145 11.71 9.73145 11.12 9.73145 10.46C9.71145 9.92 9.58145 9.5 9.34145 9.2C9.12145 8.9 8.77145 8.75 8.29145 8.75C7.77145 8.75 7.29145 8.91 6.85145 9.23C6.43145 9.55 6.05145 9.98 5.71145 10.52C5.39145 11.06 5.11145 11.67 4.87145 12.35C4.65145 13.03 4.48145 13.73 4.36145 14.45ZM14.9132 23.6C14.2332 23.6 13.7232 23.4 13.3832 23C13.0632 22.62 12.9032 22.1 12.9032 21.44C12.9032 20.64 13.1232 19.91 13.5632 19.25C14.0032 18.57 14.5632 17.95 15.2432 17.39C15.9432 16.83 16.6632 16.32 17.4032 15.86L18.3932 15.32L16.7732 10.88C16.5932 10.36 16.3332 9.93 15.9932 9.59C15.6732 9.23 15.2332 9.02 14.6732 8.96C14.7932 8.36 15.0932 7.9 15.5732 7.58C16.0532 7.26 16.6232 7.1 17.2832 7.1C18.2032 7.1 18.9032 7.4 19.3832 8C19.8632 8.6 20.2832 9.37 20.6432 10.31L21.9032 13.52C22.5832 12.96 23.1332 12.38 23.5532 11.78C23.9732 11.18 24.1832 10.5 24.1832 9.74C24.1832 9.4 24.1432 9.07 24.0632 8.75C23.9832 8.41 23.8632 8.09 23.7032 7.79C23.9832 7.59 24.3032 7.43 24.6632 7.31C25.0232 7.19 25.4132 7.13 25.8332 7.13C26.5132 7.13 27.0232 7.32 27.3632 7.7C27.7232 8.08 27.9032 8.6 27.9032 9.26C27.9032 10 27.7132 10.68 27.3332 11.3C26.9532 11.9 26.4532 12.47 25.8332 13.01C25.2132 13.53 24.5232 14.02 23.7632 14.48L22.5332 15.2L24.2132 19.82C24.3932 20.34 24.6432 20.78 24.9632 21.14C25.3032 21.5 25.7432 21.7 26.2832 21.74C26.1632 22.34 25.8632 22.8 25.3832 23.12C24.9032 23.44 24.3332 23.6 23.6732 23.6C23.0532 23.6 22.5332 23.45 22.1132 23.15C21.6932 22.87 21.3432 22.49 21.0632 22.01C20.7832 21.51 20.5332 20.97 20.3132 20.39L19.0532 17C18.3732 17.54 17.7932 18.15 17.3132 18.83C16.8532 19.49 16.6232 20.2 16.6232 20.96C16.6232 21.3 16.6632 21.64 16.7432 21.98C16.8232 22.3 16.9332 22.61 17.0732 22.91C16.5332 23.37 15.8132 23.6 14.9132 23.6ZM34.1393 23.6C33.5993 23.6 33.1593 23.55 32.8193 23.45C32.4993 23.35 32.0493 23.21 31.4693 23.03L27.9593 22.73L30.8393 7.7L34.2593 7.28L33.8693 9.89C34.4093 9.07 35.0793 8.4 35.8793 7.88C36.6793 7.36 37.6093 7.1 38.6693 7.1C39.6693 7.1 40.4893 7.35 41.1293 7.85C41.7693 8.33 42.2293 9 42.5093 9.86C42.8093 10.7 42.9593 11.69 42.9593 12.83C42.9593 14.19 42.7693 15.52 42.3893 16.82C42.0293 18.1 41.4793 19.25 40.7393 20.27C39.9993 21.27 39.0793 22.08 37.9793 22.7C36.8793 23.3 35.5993 23.6 34.1393 23.6ZM29.5793 29C28.9793 29 28.4593 28.82 28.0193 28.46C27.5793 28.12 27.3593 27.52 27.3593 26.66C27.3593 26.48 27.3793 26.2 27.4193 25.82C27.4793 25.46 27.5493 25.04 27.6293 24.56C27.7093 24.1 27.7893 23.62 27.8693 23.12C27.9693 22.62 28.0693 22.14 28.1693 21.68L32.0993 21.89C31.9393 22.77 31.7893 23.69 31.6493 24.65C31.5093 25.61 31.4393 26.46 31.4393 27.2C31.4393 27.42 31.4493 27.63 31.4693 27.83C31.5093 28.05 31.5493 28.25 31.5893 28.43C31.3293 28.59 31.0193 28.72 30.6593 28.82C30.2993 28.94 29.9393 29 29.5793 29ZM34.5593 21.8C35.1593 21.8 35.6993 21.61 36.1793 21.23C36.6593 20.83 37.0693 20.3 37.4093 19.64C37.7493 18.96 38.0293 18.19 38.2493 17.33C38.4893 16.47 38.6593 15.58 38.7593 14.66C38.8793 13.74 38.9393 12.84 38.9393 11.96C38.9393 11.2 38.8193 10.58 38.5793 10.1C38.3393 9.6 37.8793 9.35 37.1993 9.35C36.5393 9.35 35.9693 9.56 35.4893 9.98C35.0293 10.4 34.6493 10.93 34.3493 11.57C34.0693 12.21 33.8593 12.86 33.7193 13.52L32.3693 20.96C32.6893 21.24 33.0393 21.45 33.4193 21.59C33.8193 21.73 34.1993 21.8 34.5593 21.8ZM46.942 23.6C46.222 23.6 45.642 23.4 45.202 23C44.762 22.6 44.542 22.03 44.542 21.29C44.542 21.01 44.562 20.67 44.602 20.27C44.662 19.87 44.742 19.4 44.842 18.86C44.942 18.3 45.062 17.67 45.202 16.97C45.362 16.25 45.532 15.44 45.712 14.54C45.912 13.64 46.122 12.64 46.342 11.54C46.582 10.44 46.832 9.24 47.092 7.94C47.292 6.8 47.452 5.73 47.572 4.73C47.712 3.71 47.782 2.85 47.782 2.15C47.782 1.89 47.772 1.66 47.752 1.46C47.732 1.26 47.702 1.07 47.662 0.889999C47.902 0.749999 48.202 0.63 48.562 0.53C48.922 0.43 49.292 0.38 49.672 0.38C50.232 0.38 50.752 0.539999 51.232 0.859999C51.732 1.18 51.982 1.76 51.982 2.6C51.982 2.78 51.942 3.1 51.862 3.56C51.782 4 51.682 4.53 51.562 5.15C51.462 5.77 51.352 6.41 51.232 7.07C51.112 7.73 50.992 8.35 50.872 8.93C50.412 11.15 50.032 12.97 49.732 14.39C49.452 15.79 49.222 16.9 49.042 17.72C48.882 18.54 48.762 19.15 48.682 19.55C48.622 19.95 48.582 20.23 48.562 20.39C48.542 20.55 48.532 20.69 48.532 20.81C48.532 21.13 48.612 21.4 48.772 21.62C48.952 21.82 49.222 21.94 49.582 21.98C49.482 22.34 49.292 22.64 49.012 22.88C48.752 23.12 48.442 23.3 48.082 23.42C47.722 23.54 47.342 23.6 46.942 23.6ZM58.0357 23.6C57.0157 23.6 56.1557 23.44 55.4557 23.12C54.7557 22.82 54.1857 22.41 53.7457 21.89C53.3257 21.37 53.0157 20.78 52.8157 20.12C52.6357 19.44 52.5457 18.75 52.5457 18.05C52.5457 16.65 52.7257 15.3 53.0857 14C53.4457 12.7 53.9857 11.53 54.7057 10.49C55.4257 9.45 56.3357 8.63 57.4357 8.03C58.5357 7.41 59.8357 7.1 61.3357 7.1C62.3757 7.1 63.2357 7.26 63.9157 7.58C64.6157 7.88 65.1757 8.29 65.5957 8.81C66.0357 9.33 66.3457 9.92 66.5257 10.58C66.7257 11.24 66.8257 11.92 66.8257 12.62C66.8257 14.02 66.6457 15.38 66.2857 16.7C65.9257 18 65.3857 19.17 64.6657 20.21C63.9457 21.25 63.0357 22.08 61.9357 22.7C60.8357 23.3 59.5357 23.6 58.0357 23.6ZM58.5757 21.8C59.1557 21.8 59.6757 21.59 60.1357 21.17C60.5957 20.73 60.9857 20.16 61.3057 19.46C61.6457 18.74 61.9257 17.94 62.1457 17.06C62.3657 16.18 62.5257 15.28 62.6257 14.36C62.7457 13.44 62.8057 12.56 62.8057 11.72C62.8057 10.9 62.6557 10.23 62.3557 9.71C62.0757 9.17 61.5557 8.9 60.7957 8.9C60.2157 8.9 59.6957 9.11 59.2357 9.53C58.7757 9.95 58.3757 10.52 58.0357 11.24C57.6957 11.94 57.4157 12.73 57.1957 13.61C56.9757 14.49 56.8157 15.4 56.7157 16.34C56.6157 17.26 56.5657 18.14 56.5657 18.98C56.5657 19.8 56.7057 20.48 56.9857 21.02C57.2857 21.54 57.8157 21.8 58.5757 21.8ZM68.2989 23.42L71.2989 7.7L74.6889 7.28L74.2989 10.04C74.6989 9.16 75.2789 8.45 76.0389 7.91C76.7989 7.37 77.6689 7.1 78.6489 7.1C79.6889 7.1 80.4489 7.4 80.9289 8C81.4289 8.58 81.6789 9.32 81.6789 10.22C81.6789 11.28 81.3789 12.19 80.7789 12.95C80.1789 13.69 79.4089 14.06 78.4689 14.06C78.2089 14.06 77.9389 14.02 77.6589 13.94C77.3789 13.84 77.1689 13.69 77.0289 13.49C77.2889 13.13 77.5089 12.68 77.6889 12.14C77.8889 11.6 77.9889 11.1 77.9889 10.64C77.9889 10.28 77.9089 9.99 77.7489 9.77C77.5889 9.53 77.3189 9.41 76.9389 9.41C76.4989 9.41 76.1089 9.57 75.7689 9.89C75.4489 10.19 75.1689 10.6 74.9289 11.12C74.6889 11.62 74.4889 12.17 74.3289 12.77C74.1689 13.37 74.0389 13.96 73.9389 14.54L72.4689 23L68.2989 23.42ZM87.2168 23.6C86.0568 23.6 85.0468 23.39 84.1868 22.97C83.3268 22.53 82.6568 21.87 82.1768 20.99C81.7168 20.09 81.4868 18.95 81.4868 17.57C81.4868 16.31 81.6668 15.06 82.0268 13.82C82.3868 12.56 82.9268 11.43 83.6468 10.43C84.3868 9.43 85.3168 8.63 86.4368 8.03C87.5568 7.41 88.8868 7.1 90.4268 7.1C91.2268 7.1 91.9568 7.21 92.6168 7.43C93.2768 7.63 93.7968 7.99 94.1768 8.51C94.5768 9.03 94.7768 9.74 94.7768 10.64C94.7768 11.74 94.4468 12.68 93.7868 13.46C93.1468 14.24 92.2568 14.84 91.1168 15.26C89.9768 15.66 88.6668 15.87 87.1868 15.89C86.9468 15.91 86.6768 15.92 86.3768 15.92C86.0768 15.9 85.8168 15.88 85.5968 15.86C85.5768 16.16 85.5568 16.46 85.5368 16.76C85.5168 17.04 85.5068 17.29 85.5068 17.51C85.5068 18.55 85.6968 19.36 86.0768 19.94C86.4768 20.5 87.1868 20.78 88.2068 20.78C89.0468 20.78 89.8168 20.58 90.5168 20.18C91.2368 19.78 91.7868 19.23 92.1668 18.53C92.4468 18.61 92.6368 18.78 92.7368 19.04C92.8368 19.28 92.8868 19.53 92.8868 19.79C92.8868 20.45 92.6468 21.07 92.1668 21.65C91.7068 22.23 91.0568 22.7 90.2168 23.06C89.3768 23.42 88.3768 23.6 87.2168 23.6ZM85.8068 14.45C86.4868 14.45 87.1468 14.37 87.7868 14.21C88.4268 14.03 88.9968 13.78 89.4968 13.46C90.0168 13.14 90.4268 12.73 90.7268 12.23C91.0268 11.71 91.1768 11.12 91.1768 10.46C91.1568 9.92 91.0268 9.5 90.7868 9.2C90.5668 8.9 90.2168 8.75 89.7368 8.75C89.2168 8.75 88.7368 8.91 88.2968 9.23C87.8768 9.55 87.4968 9.98 87.1568 10.52C86.8368 11.06 86.5568 11.67 86.3168 12.35C86.0968 13.03 85.9268 13.73 85.8068 14.45Z" fill="white"/>
</svg>
