<svg width="33" height="33" viewBox="0 0 33 33" fill="none" xmlns="http://www.w3.org/2000/svg">
<g clip-path="url(#clip0_167_228)">
<path d="M5.15625 7.21875C4.88275 7.21875 4.62044 7.1101 4.42705 6.9167C4.23365 6.72331 4.125 6.461 4.125 6.1875C4.125 5.914 4.23365 5.65169 4.42705 5.4583C4.62044 5.2649 4.88275 5.15625 5.15625 5.15625H27.8438C28.1173 5.15625 28.3796 5.2649 28.573 5.4583C28.7664 5.65169 28.875 5.914 28.875 6.1875C28.875 6.461 28.7664 6.72331 28.573 6.9167C28.3796 7.1101 28.1173 7.21875 27.8438 7.21875H5.15625ZM9.28125 3.09375C9.00775 3.09375 8.74544 2.9851 8.55205 2.7917C8.35865 2.59831 8.25 2.336 8.25 2.0625C8.25 1.789 8.35865 1.52669 8.55205 1.3333C8.74544 1.1399 9.00775 1.03125 9.28125 1.03125H23.7188C23.9923 1.03125 24.2546 1.1399 24.448 1.3333C24.6414 1.52669 24.75 1.789 24.75 2.0625C24.75 2.336 24.6414 2.59831 24.448 2.7917C24.2546 2.9851 23.9923 3.09375 23.7188 3.09375H9.28125ZM0 26.8125C0 27.633 0.325948 28.4199 0.906138 29.0001C1.48633 29.5803 2.27324 29.9062 3.09375 29.9062H29.9062C30.7268 29.9062 31.5137 29.5803 32.0939 29.0001C32.6741 28.4199 33 27.633 33 26.8125V12.375C33 11.5545 32.6741 10.7676 32.0939 10.1874C31.5137 9.6072 30.7268 9.28125 29.9062 9.28125H3.09375C2.27324 9.28125 1.48633 9.6072 0.906138 10.1874C0.325948 10.7676 0 11.5545 0 12.375L0 26.8125ZM3.09375 27.8438C2.82025 27.8438 2.55794 27.7351 2.36455 27.5417C2.17115 27.3483 2.0625 27.086 2.0625 26.8125V12.375C2.0625 12.1015 2.17115 11.8392 2.36455 11.6458C2.55794 11.4524 2.82025 11.3438 3.09375 11.3438H29.9062C30.1798 11.3438 30.4421 11.4524 30.6355 11.6458C30.8289 11.8392 30.9375 12.1015 30.9375 12.375V26.8125C30.9375 27.086 30.8289 27.3483 30.6355 27.5417C30.4421 27.7351 30.1798 27.8438 29.9062 27.8438H3.09375Z" fill="#00FFFF" fill-opacity="0.7"/>
</g>
<defs>
<clipPath id="clip0_167_228">
<rect width="33" height="33" fill="white"/>
</clipPath>
</defs>
</svg>
