<svg width="40" height="40" viewBox="0 0 40 40" fill="none" xmlns="http://www.w3.org/2000/svg">
<path fill-rule="evenodd" clip-rule="evenodd" d="M6.66665 6.66663C5.78259 6.66663 4.93474 7.01782 4.30962 7.64294C3.6845 8.26806 3.33331 9.1159 3.33331 9.99996V30C3.33331 30.884 3.6845 31.7319 4.30962 32.357C4.93474 32.9821 5.78259 33.3333 6.66665 33.3333H33.3333C34.2174 33.3333 35.0652 32.9821 35.6903 32.357C36.3155 31.7319 36.6666 30.884 36.6666 30V9.99996C36.6666 9.1159 36.3155 8.26806 35.6903 7.64294C35.0652 7.01782 34.2174 6.66663 33.3333 6.66663H6.66665ZM23.3333 15C23.3333 14.5579 23.5089 14.134 23.8215 13.8214C24.134 13.5089 24.558 13.3333 25 13.3333H30C30.442 13.3333 30.8659 13.5089 31.1785 13.8214C31.4911 14.134 31.6666 14.5579 31.6666 15C31.6666 15.442 31.4911 15.8659 31.1785 16.1785C30.8659 16.491 30.442 16.6666 30 16.6666H25C24.558 16.6666 24.134 16.491 23.8215 16.1785C23.5089 15.8659 23.3333 15.442 23.3333 15ZM23.3333 20C23.3333 19.5579 23.5089 19.134 23.8215 18.8214C24.134 18.5089 24.558 18.3333 25 18.3333H30C30.442 18.3333 30.8659 18.5089 31.1785 18.8214C31.4911 19.134 31.6666 19.5579 31.6666 20C31.6666 20.442 31.4911 20.8659 31.1785 21.1785C30.8659 21.491 30.442 21.6666 30 21.6666H25C24.558 21.6666 24.134 21.491 23.8215 21.1785C23.5089 20.8659 23.3333 20.442 23.3333 20ZM23.3333 25C23.3333 24.5579 23.5089 24.134 23.8215 23.8214C24.134 23.5089 24.558 23.3333 25 23.3333H30C30.442 23.3333 30.8659 23.5089 31.1785 23.8214C31.4911 24.134 31.6666 24.5579 31.6666 25C31.6666 25.442 31.4911 25.8659 31.1785 26.1785C30.8659 26.491 30.442 26.6666 30 26.6666H25C24.558 26.6666 24.134 26.491 23.8215 26.1785C23.5089 25.8659 23.3333 25.442 23.3333 25ZM9.99998 16.6666C9.99998 15.3405 10.5268 14.0688 11.4644 13.1311C12.4021 12.1934 13.6739 11.6666 15 11.6666C16.3261 11.6666 17.5978 12.1934 18.5355 13.1311C19.4732 14.0688 20 15.3405 20 16.6666C20 17.9927 19.4732 19.2645 18.5355 20.2022C17.5978 21.1398 16.3261 21.6666 15 21.6666C13.6739 21.6666 12.4021 21.1398 11.4644 20.2022C10.5268 19.2645 9.99998 17.9927 9.99998 16.6666ZM13.2366 23.3333C12.187 23.3329 11.1639 23.6629 10.3123 24.2764C9.46064 24.8899 8.82368 25.7559 8.49165 26.7516L8.41831 26.9733L8.41165 26.9933C8.34165 27.2033 8.31998 27.2716 8.34165 27.3183C8.35165 27.34 8.37498 27.3566 8.40498 27.3833C8.45831 27.425 8.53831 27.49 8.64831 27.6416C8.80274 27.8557 9.00581 28.0301 9.24081 28.1503C9.4758 28.2706 9.736 28.3333 9.99998 28.3333H20C20.264 28.3333 20.5242 28.2706 20.7592 28.1503C20.9941 28.0301 21.1972 27.8557 21.3516 27.6416C21.4191 27.5436 21.5012 27.4565 21.595 27.3833C21.6266 27.3566 21.6466 27.34 21.6583 27.3166C21.6816 27.2716 21.6583 27.2033 21.5883 26.9933L21.5816 26.9733L21.5083 26.7516C21.1764 25.7562 20.5397 24.8904 19.6884 24.2769C18.8371 23.6634 17.8143 23.3333 16.765 23.3333H13.2366Z" fill="#00FFFF" fill-opacity="0.7"/>
</svg>
