<svg width="21" height="21" viewBox="0 0 21 21" fill="none" xmlns="http://www.w3.org/2000/svg">
<g clip-path="url(#clip0_167_1244)">
<path d="M20.25 15.75V18.75C20.25 19.1478 20.092 19.5294 19.8107 19.8107C19.5294 20.092 19.1478 20.25 18.75 20.25H15.75M15.75 0.75H18.75C19.1478 0.75 19.5294 0.908035 19.8107 1.18934C20.092 1.47064 20.25 1.85218 20.25 2.25V5.25M0.75 5.25V2.25C0.75 1.85218 0.908035 1.47064 1.18934 1.18934C1.47064 0.908035 1.85218 0.75 2.25 0.75H5.25M5.25 20.25H2.25C1.85218 20.25 1.47064 20.092 1.18934 19.8107C0.908035 19.5294 0.75 19.1478 0.75 18.75V15.75" stroke="white" stroke-width="1.5" stroke-linecap="round" stroke-linejoin="round"/>
<path d="M4.875 9.375C4.875 9.96595 4.9914 10.5511 5.21754 11.0971C5.44369 11.643 5.77516 12.1391 6.19302 12.557C6.61088 12.9748 7.10696 13.3063 7.65292 13.5325C8.19889 13.7586 8.78405 13.875 9.375 13.875C9.96595 13.875 10.5511 13.7586 11.0971 13.5325C11.643 13.3063 12.1391 12.9748 12.557 12.557C12.9748 12.1391 13.3063 11.643 13.5325 11.0971C13.7586 10.5511 13.875 9.96595 13.875 9.375C13.875 8.78405 13.7586 8.19889 13.5325 7.65292C13.3063 7.10696 12.9748 6.61088 12.557 6.19302C12.1391 5.77516 11.643 5.44369 11.0971 5.21754C10.5511 4.9914 9.96595 4.875 9.375 4.875C8.78405 4.875 8.19889 4.9914 7.65292 5.21754C7.10696 5.44369 6.61088 5.77516 6.19302 6.19302C5.77516 6.61088 5.44369 7.10696 5.21754 7.65292C4.9914 8.19889 4.875 8.78405 4.875 9.375Z" stroke="white" stroke-width="1.5"/>
<path d="M12.75 12.75L15.75 15.75" stroke="white" stroke-width="1.5" stroke-linecap="round" stroke-linejoin="round"/>
</g>
<defs>
<clipPath id="clip0_167_1244">
<rect width="21" height="21" fill="white"/>
</clipPath>
</defs>
</svg>
