<svg width="28" height="30" viewBox="0 0 28 30" fill="none" xmlns="http://www.w3.org/2000/svg">
<g clip-path="url(#clip0_167_180)" filter="url(#filter0_d_167_180)">
<path fill-rule="evenodd" clip-rule="evenodd" d="M14 2C8.477 2 4 6.477 4 12C4 17.523 8.477 22 14 22C19.523 22 24 17.523 24 12C24 6.477 19.523 2 14 2ZM10.5 9.5C10.5 9.04037 10.5905 8.58525 10.7664 8.16061C10.9423 7.73597 11.2001 7.35013 11.5251 7.02513C11.8501 6.70012 12.236 6.44231 12.6606 6.26642C13.0852 6.09053 13.5404 6 14 6C14.4596 6 14.9148 6.09053 15.3394 6.26642C15.764 6.44231 16.1499 6.70012 16.4749 7.02513C16.7999 7.35013 17.0577 7.73597 17.2336 8.16061C17.4095 8.58525 17.5 9.04037 17.5 9.5C17.5 10.4283 17.1313 11.3185 16.4749 11.9749C15.8185 12.6313 14.9283 13 14 13C13.0717 13 12.1815 12.6313 11.5251 11.9749C10.8687 11.3185 10.5 10.4283 10.5 9.5ZM20.258 16.984C19.5094 17.9256 18.5578 18.686 17.4742 19.2082C16.3905 19.7305 15.2029 20.0011 14 20C12.7971 20.0011 11.6095 19.7305 10.5258 19.2082C9.4422 18.686 8.49056 17.9256 7.742 16.984C9.363 15.821 11.575 15 14 15C16.425 15 18.637 15.821 20.258 16.984Z" fill="#FFFEFB"/>
</g>
<defs>
<filter id="filter0_d_167_180" x="-2" y="0" width="32" height="32" filterUnits="userSpaceOnUse" color-interpolation-filters="sRGB">
<feFlood flood-opacity="0" result="BackgroundImageFix"/>
<feColorMatrix in="SourceAlpha" type="matrix" values="0 0 0 0 0 0 0 0 0 0 0 0 0 0 0 0 0 0 127 0" result="hardAlpha"/>
<feOffset dy="4"/>
<feGaussianBlur stdDeviation="2"/>
<feComposite in2="hardAlpha" operator="out"/>
<feColorMatrix type="matrix" values="0 0 0 0 0 0 0 0 0 0 0 0 0 0 0 0 0 0 0.25 0"/>
<feBlend mode="normal" in2="BackgroundImageFix" result="effect1_dropShadow_167_180"/>
<feBlend mode="normal" in="SourceGraphic" in2="effect1_dropShadow_167_180" result="shape"/>
</filter>
<clipPath id="clip0_167_180">
<rect width="24" height="24" fill="white" transform="translate(2)"/>
</clipPath>
</defs>
</svg>
