<svg width="29" height="29" viewBox="0 0 29 29" fill="none" xmlns="http://www.w3.org/2000/svg">
<path d="M26.5664 11.7692C26.5637 11.7337 26.5605 11.6982 26.5567 11.6628C26.4496 10.1394 25.7698 8.71287 24.6539 7.6701C23.5381 6.62732 22.0689 6.04554 20.5417 6.04167H8.45832C6.90964 6.03467 5.41813 6.62623 4.29525 7.69282C3.17237 8.75941 2.50495 10.2186 2.43236 11.7655C2.42028 11.861 2.41666 11.9601 2.41666 12.0713V19.9375C2.41666 21.0552 2.86736 22.1463 3.65157 22.9293C4.44763 23.7202 5.52369 24.1649 6.64582 24.1667C8.82082 24.1667 9.67149 22.9583 10.875 20.5417C11.0514 20.1888 12.0737 18.125 14.5 18.125C16.9118 18.125 17.9474 20.1876 18.125 20.5417C19.3382 22.9583 20.1792 24.1667 22.3542 24.1667C23.4719 24.1667 24.563 23.716 25.346 22.9318C26.1369 22.1357 26.5815 21.0596 26.5833 19.9375V12.0833C26.5833 11.9685 26.5785 11.8658 26.5664 11.7692ZM8.45832 14.5375C8.1365 14.5447 7.81646 14.4877 7.517 14.3695C7.21754 14.2514 6.9447 14.0747 6.71449 13.8497C6.48428 13.6247 6.30134 13.3559 6.17642 13.0593C6.05149 12.7626 5.9871 12.4439 5.98702 12.122C5.98694 11.8001 6.05117 11.4814 6.17595 11.1847C6.30072 10.8879 6.48353 10.6191 6.71362 10.394C6.94372 10.1689 7.21648 9.99199 7.51588 9.87373C7.81528 9.75547 8.13528 9.69822 8.45711 9.70534C9.08854 9.7193 9.68941 9.9799 10.1311 10.4314C10.5728 10.8828 10.8202 11.4892 10.8204 12.1208C10.8205 12.7524 10.5734 13.3589 10.1319 13.8106C9.69049 14.2623 9.08974 14.5232 8.45832 14.5375ZM20.5417 8.4958C20.8621 8.4958 21.1695 8.6231 21.3961 8.84971C21.6227 9.07632 21.75 9.38366 21.75 9.70413C21.75 10.0246 21.6227 10.3319 21.3961 10.5586C21.1695 10.7852 20.8621 10.9125 20.5417 10.9125C20.2212 10.9125 19.9138 10.7852 19.6872 10.5586C19.4606 10.3319 19.3333 10.0246 19.3333 9.70413C19.3333 9.38366 19.4606 9.07632 19.6872 8.84971C19.9138 8.6231 20.2212 8.4958 20.5417 8.4958ZM18.125 13.3291C17.8045 13.3291 17.4972 13.2018 17.2706 12.9752C17.044 12.7486 16.9167 12.4413 16.9167 12.1208C16.9167 11.8003 17.044 11.493 17.2706 11.2664C17.4972 11.0398 17.8045 10.9125 18.125 10.9125C18.4455 10.9125 18.7528 11.0398 18.9794 11.2664C19.206 11.493 19.3333 11.8003 19.3333 12.1208C19.3333 12.4413 19.206 12.7486 18.9794 12.9752C18.7528 13.2018 18.4455 13.3291 18.125 13.3291ZM20.5417 15.7458C20.2212 15.7458 19.9138 15.6185 19.6872 15.3919C19.4606 15.1653 19.3333 14.8579 19.3333 14.5375C19.3333 14.217 19.4606 13.9097 19.6872 13.683C19.9138 13.4564 20.2212 13.3291 20.5417 13.3291C20.8621 13.3291 21.1695 13.4564 21.3961 13.683C21.6227 13.9097 21.75 14.217 21.75 14.5375C21.75 14.8579 21.6227 15.1653 21.3961 15.3919C21.1695 15.6185 20.8621 15.7458 20.5417 15.7458ZM22.9583 13.3291C22.6379 13.3291 22.3305 13.2018 22.1039 12.9752C21.8773 12.7486 21.75 12.4413 21.75 12.1208C21.75 11.8003 21.8773 11.493 22.1039 11.2664C22.3305 11.0398 22.6379 10.9125 22.9583 10.9125C23.2788 10.9125 23.5861 11.0398 23.8127 11.2664C24.0394 11.493 24.1667 11.8003 24.1667 12.1208C24.1667 12.4413 24.0394 12.7486 23.8127 12.9752C23.5861 13.2018 23.2788 13.3291 22.9583 13.3291Z" fill="#00FFFF" fill-opacity="0.8"/>
</svg>
