<svg width="19" height="19" viewBox="0 0 19 19" fill="none" xmlns="http://www.w3.org/2000/svg">
<path d="M12.1038 11.6192C11.9876 11.5812 11.2532 11.2502 11.7121 9.85517H11.7055C12.9018 8.62309 13.816 6.64051 13.816 4.68863C13.816 1.68736 11.8203 0.114014 9.50079 0.114014C7.17987 0.114014 5.1951 1.68663 5.1951 4.68863C5.1951 6.64855 6.10417 8.63917 7.30775 9.86832C7.77691 11.0989 6.93798 11.5557 6.7626 11.62C4.33352 12.4984 1.48352 14.0995 1.48352 15.6801V16.2728C1.48352 18.4264 5.65914 18.916 9.52344 18.916C13.3936 18.916 17.5166 18.4264 17.5166 16.2728V15.6801C17.5166 14.052 14.6527 12.4633 12.1038 11.6192Z" fill="#00FFFF" fill-opacity="0.8"/>
</svg>
