<svg width="151" height="136" viewBox="0 0 151 136" fill="none" xmlns="http://www.w3.org/2000/svg">
<g filter="url(#filter0_b_167_1532)">
<g filter="url(#filter1_d_167_1532)">
<path d="M22.72 111.8C21.28 114.96 20.56 118.37 20.56 122.03C20.02 122.41 19.35 122.6 18.55 122.6C17.77 122.6 17.13 122.41 16.63 122.03C16.13 121.67 15.83 121.3 15.73 120.92C15.23 121.44 14.57 121.85 13.75 122.15C12.95 122.45 12.12 122.6 11.26 122.6C10.4 122.6 9.59 122.46 8.83 122.18C8.09 121.9 7.43 121.45 6.85 120.83C5.57 119.47 4.93 117.5 4.93 114.92C4.93 110.92 6 107.72 8.14 105.32C10.34 102.84 13.39 101.6 17.29 101.6C19.99 101.6 21.82 102.3 22.78 103.7C23.08 104.14 23.23 104.63 23.23 105.17C23.23 105.69 23.11 106.18 22.87 106.64C22.65 107.08 22.36 107.48 22 107.84C21.14 108.64 20.18 109.04 19.12 109.04C18.7 109.04 18.29 108.97 17.89 108.83C17.97 108.23 18.01 107.58 18.01 106.88C18.01 106.18 17.98 105.67 17.92 105.35C17.88 105.03 17.8 104.74 17.68 104.48C17.42 103.94 17 103.67 16.42 103.67C15.86 103.67 15.26 103.98 14.62 104.6C14 105.2 13.44 106 12.94 107C11.84 109.24 11.29 111.71 11.29 114.41C11.29 115.65 11.53 116.71 12.01 117.59C12.53 118.55 13.25 119.03 14.17 119.03C14.49 119.03 14.79 118.95 15.07 118.79C15.37 118.63 15.58 118.49 15.7 118.37L16.66 112.34L22.72 111.8ZM70.5241 122.6C68.1041 122.6 66.8941 121.66 66.8941 119.78C66.8941 118.96 67.0641 117.76 67.4041 116.18C67.7641 114.58 68.0041 113.46 68.1241 112.82C68.4041 111.36 68.5441 110.4 68.5441 109.94C68.5441 108.92 68.1641 108.41 67.4041 108.41C66.9041 108.41 66.4141 108.76 65.9341 109.46C65.4541 110.14 65.1041 111.17 64.8841 112.55L63.0241 122L57.1741 122.6L58.7941 114.44C58.9741 113.54 59.1441 112.58 59.3041 111.56C59.4641 110.54 59.5441 109.95 59.5441 109.79C59.5441 108.87 59.2041 108.41 58.5241 108.41C58.0641 108.41 57.5841 108.75 57.0841 109.43C56.5841 110.11 56.1941 111.15 55.9141 112.55L54.0841 122L48.1741 122.6L51.3241 106.7L56.2141 106.1L55.7041 109.13C56.2241 108.05 56.9641 107.28 57.9241 106.82C58.8841 106.34 60.1141 106.1 61.6141 106.1C62.4741 106.1 63.1841 106.31 63.7441 106.73C64.3041 107.15 64.6741 107.7 64.8541 108.38C65.1941 107.68 65.7941 107.13 66.6541 106.73C67.5341 106.31 68.5041 106.1 69.5641 106.1C70.6441 106.1 71.4441 106.22 71.9641 106.46C72.5041 106.68 72.9341 106.98 73.2541 107.36C73.7941 108.06 74.0641 109.05 74.0641 110.33C74.0641 111.59 73.7941 113.53 73.2541 116.15C72.9741 117.43 72.8341 118.31 72.8341 118.79C72.8341 119.25 72.9641 119.62 73.2241 119.9C73.5041 120.18 73.8441 120.34 74.2441 120.38C74.0441 121.06 73.5941 121.6 72.8941 122C72.2141 122.4 71.4241 122.6 70.5241 122.6ZM88.701 116.93C89.201 117.27 89.451 117.82 89.451 118.58C89.451 119.32 89.261 119.93 88.881 120.41C88.501 120.89 88.001 121.29 87.381 121.61C86.101 122.27 84.771 122.6 83.391 122.6C82.011 122.6 80.911 122.45 80.091 122.15C79.291 121.85 78.621 121.42 78.081 120.86C77.021 119.8 76.491 118.3 76.491 116.36C76.491 113.34 77.311 110.91 78.951 109.07C80.711 107.09 83.121 106.1 86.181 106.1C88.081 106.1 89.501 106.5 90.441 107.3C91.141 107.9 91.491 108.69 91.491 109.67C91.491 113.19 88.451 114.95 82.371 114.95C82.291 115.47 82.251 115.95 82.251 116.39C82.251 117.31 82.451 117.95 82.851 118.31C83.271 118.65 83.861 118.82 84.621 118.82C85.381 118.82 86.161 118.65 86.961 118.31C87.781 117.95 88.361 117.49 88.701 116.93ZM82.581 113.66C84.001 113.66 85.121 113.22 85.941 112.34C86.761 111.5 87.171 110.41 87.171 109.07C87.171 108.61 87.081 108.26 86.901 108.02C86.741 107.76 86.491 107.63 86.151 107.63C85.811 107.63 85.491 107.7 85.191 107.84C84.911 107.96 84.621 108.24 84.321 108.68C83.581 109.68 83.001 111.34 82.581 113.66ZM105.688 122.6C103.128 122.6 101.728 120.78 101.488 117.14H96.3278C95.9278 118.06 95.5878 118.92 95.3078 119.72L94.5278 122H90.3278L99.7778 102.2H106.228L107.488 116.78C107.688 118.88 108.188 120.24 108.988 120.86C108.408 122.02 107.308 122.6 105.688 122.6ZM97.2578 114.95H101.398L101.038 107.24V106.43L98.9078 111.14L97.2578 114.95ZM124.72 119.96C123.88 120.8 122.88 121.45 121.72 121.91C120.58 122.37 119.44 122.6 118.3 122.6C117.16 122.6 116.39 122.5 115.99 122.3L115.06 127.4L108.97 128L113.11 106.7L118 106.19L117.61 108.26C118.45 106.84 119.74 106.13 121.48 106.13C123.44 106.13 124.94 106.76 125.98 108.02C126.9 109.16 127.36 110.6 127.36 112.34C127.36 114.08 127.13 115.57 126.67 116.81C126.21 118.05 125.56 119.1 124.72 119.96ZM116.35 120.32C116.77 120.68 117.24 120.86 117.76 120.86C118.28 120.86 118.69 120.76 118.99 120.56C119.29 120.36 119.55 120.06 119.77 119.66C120.37 118.58 120.91 116.4 121.39 113.12C121.53 112.16 121.6 111.21 121.6 110.27C121.6 109.33 121.49 108.71 121.27 108.41C121.07 108.11 120.77 107.96 120.37 107.96C119.15 107.96 118.34 109.15 117.94 111.53L116.35 120.32ZM143.148 119.96C142.308 120.8 141.308 121.45 140.148 121.91C139.008 122.37 137.868 122.6 136.728 122.6C135.588 122.6 134.818 122.5 134.418 122.3L133.488 127.4L127.398 128L131.538 106.7L136.428 106.19L136.038 108.26C136.878 106.84 138.168 106.13 139.908 106.13C141.868 106.13 143.368 106.76 144.408 108.02C145.328 109.16 145.788 110.6 145.788 112.34C145.788 114.08 145.558 115.57 145.098 116.81C144.638 118.05 143.988 119.1 143.148 119.96ZM134.778 120.32C135.198 120.68 135.668 120.86 136.188 120.86C136.708 120.86 137.118 120.76 137.418 120.56C137.718 120.36 137.978 120.06 138.198 119.66C138.798 118.58 139.338 116.4 139.818 113.12C139.958 112.16 140.028 111.21 140.028 110.27C140.028 109.33 139.918 108.71 139.698 108.41C139.498 108.11 139.198 107.96 138.798 107.96C137.578 107.96 136.768 109.15 136.368 111.53L134.778 120.32Z" fill="#0C0C24"/>
</g>
<g opacity="0.9" filter="url(#filter2_d_167_1532)">
<path d="M45.9853 112.056C45.9829 112.025 45.9801 111.993 45.9769 111.962C45.8838 110.617 45.2931 109.358 44.3234 108.438C43.3538 107.517 42.0771 107.003 40.75 107H30.25C28.9042 106.994 27.6082 107.516 26.6324 108.458C25.6567 109.399 25.0767 110.687 25.0137 112.053C25.0032 112.137 25 112.225 25 112.323V119.267C25 120.253 25.3917 121.217 26.0731 121.908C26.7649 122.606 27.6999 122.998 28.675 123C30.565 123 31.3042 121.933 32.35 119.8C32.5033 119.489 33.3916 117.667 35.5 117.667C37.5958 117.667 38.4956 119.487 38.65 119.8C39.7042 121.933 40.435 123 42.325 123C43.2963 123 44.2444 122.602 44.9248 121.91C45.612 121.207 45.9984 120.257 46 119.267V112.333C46 112.232 45.9958 112.141 45.9853 112.056ZM30.25 114.5C29.9703 114.506 29.6922 114.456 29.432 114.352C29.1718 114.247 28.9347 114.091 28.7347 113.893C28.5346 113.694 28.3757 113.457 28.2671 113.195C28.1585 112.933 28.1026 112.652 28.1025 112.368C28.1025 112.083 28.1583 111.802 28.2667 111.54C28.3751 111.278 28.534 111.041 28.7339 110.842C28.9339 110.643 29.1709 110.487 29.431 110.383C29.6912 110.278 29.9693 110.228 30.249 110.234C30.7976 110.247 31.3198 110.477 31.7036 110.875C32.0874 111.274 32.3024 111.809 32.3025 112.366C32.3027 112.924 32.0879 113.459 31.7043 113.858C31.3207 114.257 30.7987 114.487 30.25 114.5ZM40.75 109.166C41.0285 109.166 41.2955 109.279 41.4925 109.479C41.6894 109.679 41.8 109.95 41.8 110.233C41.8 110.516 41.6894 110.787 41.4925 110.987C41.2955 111.187 41.0285 111.3 40.75 111.3C40.4715 111.3 40.2045 111.187 40.0075 110.987C39.8106 110.787 39.7 110.516 39.7 110.233C39.7 109.95 39.8106 109.679 40.0075 109.479C40.2045 109.279 40.4715 109.166 40.75 109.166ZM38.65 113.433C38.3715 113.433 38.1045 113.321 37.9075 113.121C37.7106 112.921 37.6 112.649 37.6 112.366C37.6 112.084 37.7106 111.812 37.9075 111.612C38.1045 111.412 38.3715 111.3 38.65 111.3C38.9285 111.3 39.1955 111.412 39.3925 111.612C39.5894 111.812 39.7 112.084 39.7 112.366C39.7 112.649 39.5894 112.921 39.3925 113.121C39.1955 113.321 38.9285 113.433 38.65 113.433ZM40.75 115.566C40.4715 115.566 40.2045 115.454 40.0075 115.254C39.8106 115.054 39.7 114.783 39.7 114.5C39.7 114.217 39.8106 113.946 40.0075 113.746C40.2045 113.545 40.4715 113.433 40.75 113.433C41.0285 113.433 41.2955 113.545 41.4925 113.746C41.6894 113.946 41.8 114.217 41.8 114.5C41.8 114.783 41.6894 115.054 41.4925 115.254C41.2955 115.454 41.0285 115.566 40.75 115.566ZM42.85 113.433C42.5715 113.433 42.3044 113.321 42.1075 113.121C41.9106 112.921 41.8 112.649 41.8 112.366C41.8 112.084 41.9106 111.812 42.1075 111.612C42.3044 111.412 42.5715 111.3 42.85 111.3C43.1285 111.3 43.3955 111.412 43.5925 111.612C43.7894 111.812 43.9 112.084 43.9 112.366C43.9 112.649 43.7894 112.921 43.5925 113.121C43.3955 113.321 43.1285 113.433 42.85 113.433Z" fill="#0C0C24"/>
<path d="M45.4867 112.094L45.4876 112.105L45.489 112.117C45.4963 112.176 45.5 112.245 45.5 112.333V119.266C45.4986 120.127 45.1628 120.951 44.5679 121.56C43.9814 122.156 43.1619 122.5 42.325 122.5C41.494 122.5 40.9686 122.273 40.5219 121.841C40.0417 121.376 39.6288 120.652 39.0983 119.579L39.0949 119.572C38.933 119.244 37.9081 117.167 35.5 117.167C33.0866 117.167 32.0719 119.232 31.9064 119.569C31.9046 119.573 31.903 119.576 31.9014 119.579L31.901 119.58C31.3753 120.652 30.9623 121.376 30.4816 121.84C30.0339 122.273 29.5064 122.5 28.6753 122.5C27.8349 122.498 27.0274 122.16 26.4287 121.556C25.8414 120.96 25.5 120.124 25.5 119.267V112.323C25.5 112.234 25.503 112.17 25.5098 112.115L25.5122 112.095L25.5131 112.076C25.5704 110.837 26.0966 109.669 26.9796 108.817C27.8624 107.966 29.0334 107.494 30.2477 107.5V107.5H30.25H40.7493C41.9475 107.503 43.1015 107.967 43.9792 108.8C44.8572 109.634 45.3936 110.776 45.4781 111.997L45.4787 112.005L45.4795 112.014C45.4823 112.04 45.4847 112.067 45.4867 112.094ZM29.2461 114.816C29.5689 114.945 29.9141 115.008 30.2615 115C30.9433 114.984 31.5904 114.698 32.0646 114.205C32.5387 113.712 32.8027 113.052 32.8025 112.366C32.8024 111.681 32.538 111.021 32.0637 110.528C31.5892 110.036 30.942 109.75 30.2602 109.734C29.9128 109.726 29.5676 109.789 29.2448 109.919C28.9221 110.048 28.6287 110.242 28.3814 110.487C28.1343 110.733 27.9383 111.026 27.8047 111.349C27.6711 111.672 27.6024 112.018 27.6025 112.368C27.6026 112.717 27.6715 113.064 27.8052 113.386C27.939 113.709 28.1351 114.002 28.3824 114.247C28.6297 114.493 28.9233 114.686 29.2461 114.816ZM41.8488 109.128C41.5587 108.833 41.1636 108.666 40.75 108.666C40.3364 108.666 39.9413 108.833 39.6512 109.128C39.3614 109.422 39.2 109.82 39.2 110.233C39.2 110.5 39.2677 110.761 39.394 110.992C39.1683 110.867 38.9129 110.8 38.65 110.8C38.2364 110.8 37.8413 110.967 37.5512 111.261C37.2614 111.556 37.1 111.953 37.1 112.366C37.1 112.779 37.2614 113.177 37.5512 113.471C37.8413 113.766 38.2364 113.933 38.65 113.933C38.9129 113.933 39.1683 113.866 39.394 113.741C39.2677 113.971 39.2 114.232 39.2 114.5C39.2 114.913 39.3614 115.31 39.6512 115.605C39.9413 115.899 40.3364 116.066 40.75 116.066C41.1636 116.066 41.5587 115.899 41.8488 115.605C42.1386 115.31 42.3 114.913 42.3 114.5C42.3 114.232 42.2323 113.971 42.106 113.741C42.3317 113.866 42.5871 113.933 42.85 113.933C43.2636 113.933 43.6587 113.766 43.9488 113.471C44.2386 113.177 44.4 112.779 44.4 112.366C44.4 111.953 44.2386 111.556 43.9488 111.261C43.6587 110.967 43.2636 110.8 42.85 110.8C42.5871 110.8 42.3317 110.867 42.106 110.992C42.2323 110.761 42.3 110.5 42.3 110.233C42.3 109.82 42.1386 109.422 41.8488 109.128ZM40.2 112.366C40.2 112.099 40.1323 111.838 40.006 111.608C40.2317 111.732 40.4871 111.8 40.75 111.8C41.0129 111.8 41.2683 111.732 41.494 111.608C41.3677 111.838 41.3 112.099 41.3 112.366C41.3 112.634 41.3677 112.895 41.494 113.125C41.2683 113.001 41.0129 112.933 40.75 112.933C40.4871 112.933 40.2317 113.001 40.006 113.125C40.1323 112.895 40.2 112.634 40.2 112.366Z" stroke="white" stroke-opacity="0.5"/>
</g>
</g>
<g clip-path="url(#clip0_167_1532)">
<path d="M87.8985 16.6224C87.3609 16.6224 86.925 16.1865 86.925 15.6488C86.925 12.1558 88.9168 10.4039 90.6743 8.85809C92.1739 7.53911 93.4689 6.39995 93.4689 4.28912C93.4689 3.75146 93.9049 3.31554 94.4425 3.31554C94.9802 3.31554 95.4161 3.75146 95.4161 4.28912C95.4161 7.28042 93.5801 8.89532 91.9603 10.3201C90.3033 11.7776 88.8721 13.0364 88.8721 15.6488C88.8721 16.1866 88.4362 16.6224 87.8985 16.6224Z" fill="#597B91"/>
<path d="M109.897 21.6337C109.798 21.3965 109.701 21.163 109.604 20.9335C108.617 17.3206 105.311 14.6648 101.385 14.6648H74.246C70.5105 14.6648 67.3367 17.069 66.1868 20.4142C66.0148 20.8075 65.8466 21.2151 65.6712 21.6337C62.9298 28.1634 63.4477 33.9145 63.4477 41.77C63.4477 46.7476 69.5528 47.9393 72.0916 44.0433C72.8045 42.9494 75.4186 39.3216 77.9885 35.3723C78.7826 35.7975 79.6697 36.0194 80.5706 36.0182C85.0806 36.0182 85.1219 32.4418 88.0258 32.4418C88.1062 32.4418 88.1756 32.4352 88.2374 32.4242C88.2993 32.4352 88.3685 32.4418 88.449 32.4418C91.353 32.4418 91.3944 36.0182 95.9043 36.0182C96.5838 36.0182 97.234 35.8937 97.8344 35.6677C100.362 39.5014 102.883 42.9767 103.578 44.0433C106.117 47.9392 112.222 46.6166 112.222 41.77C112.222 33.9145 112.639 28.1634 109.897 21.6337Z" fill="#2B3B47"/>
<path d="M108.334 23.4603C108.334 27.369 105.165 30.5377 101.256 30.5377C97.3477 30.5377 94.1791 27.3691 94.1791 23.4603C94.1791 19.5515 97.3477 16.3828 101.256 16.3828C105.165 16.3828 108.334 19.5515 108.334 23.4603ZM74.751 16.3828C70.8423 16.3828 67.6736 19.5515 67.6736 23.4603C67.6736 27.3691 70.8422 30.5377 74.751 30.5377C78.6598 30.5377 81.8285 27.3691 81.8285 23.4603C81.8285 19.5515 78.6597 16.3828 74.751 16.3828Z" fill="#132028"/>
<path d="M101.385 28.9355C102.424 28.9355 103.267 28.093 103.267 27.0536C103.267 26.0143 102.424 25.1717 101.385 25.1717C100.346 25.1717 99.5031 26.0143 99.5031 27.0536C99.5031 28.093 100.346 28.9355 101.385 28.9355Z" fill="#00B1FF"/>
<path d="M101.385 21.8878C102.424 21.8878 103.267 21.0452 103.267 20.0059C103.267 18.9665 102.424 18.124 101.385 18.124C100.346 18.124 99.5031 18.9665 99.5031 20.0059C99.5031 21.0452 100.346 21.8878 101.385 21.8878Z" fill="#FFB636"/>
<path d="M97.8611 25.4117C98.9005 25.4117 99.743 24.5691 99.743 23.5298C99.743 22.4904 98.9005 21.6479 97.8611 21.6479C96.8218 21.6479 95.9792 22.4904 95.9792 23.5298C95.9792 24.5691 96.8218 25.4117 97.8611 25.4117Z" fill="#FF473E"/>
<path d="M104.909 25.4117C105.948 25.4117 106.791 24.5691 106.791 23.5298C106.791 22.4904 105.948 21.6479 104.909 21.6479C103.87 21.6479 103.027 22.4904 103.027 23.5298C103.027 24.5691 103.87 25.4117 104.909 25.4117Z" fill="#00B89C"/>
<path d="M86.2616 26.7604H83.9078C83.7125 26.7604 83.5252 26.6828 83.3871 26.5447C83.249 26.4067 83.1715 26.2194 83.1715 26.0241C83.1715 25.8288 83.249 25.6415 83.3871 25.5034C83.5252 25.3653 83.7125 25.2877 83.9078 25.2877H86.2616C86.4569 25.2877 86.6442 25.3653 86.7823 25.5034C86.9204 25.6415 86.998 25.8288 86.998 26.0241C86.998 26.2194 86.9204 26.4067 86.7823 26.5447C86.6442 26.6828 86.4569 26.7604 86.2616 26.7604ZM93.0917 26.0241C93.0917 25.8288 93.0141 25.6415 92.876 25.5034C92.7379 25.3653 92.5506 25.2877 92.3553 25.2877H90.0015C89.8062 25.2877 89.6189 25.3653 89.4808 25.5034C89.3427 25.6415 89.2652 25.8288 89.2652 26.0241C89.2652 26.2194 89.3427 26.4067 89.4808 26.5447C89.6189 26.6828 89.8062 26.7604 90.0015 26.7604H92.3553C92.5506 26.7604 92.7379 26.6828 92.876 26.5447C93.0141 26.4066 93.0916 26.2194 93.0917 26.0241ZM80.589 27.264C78.7811 27.264 77.3154 28.7296 77.3154 30.5376C77.3154 32.3456 78.7811 33.8112 80.589 33.8112C82.3969 33.8112 83.8626 32.3456 83.8626 30.5376C83.8625 28.7297 82.3969 27.264 80.589 27.264ZM95.2081 27.264C93.4002 27.264 91.9345 28.7296 91.9345 30.5376C91.9345 32.3456 93.4002 33.8112 95.2081 33.8112C97.0161 33.8112 98.4818 32.3456 98.4818 30.5376C98.4818 28.7297 97.0162 27.264 95.2081 27.264ZM72.099 21.7633H69.5483C69.2513 21.7633 69.0105 22.0892 69.0105 22.4914V24.2814C69.0105 24.6836 69.2513 25.0095 69.5483 25.0095H72.099C72.2293 25.0095 72.3553 24.9454 72.4534 24.8292L73.2085 23.9342C73.4532 23.6441 73.4532 23.1287 73.2085 22.8387L72.4534 21.9437C72.3552 21.8274 72.2293 21.7633 72.099 21.7633ZM76.3742 20.9189V18.3682C76.3742 18.0711 76.0482 17.8304 75.646 17.8304H73.856C73.4539 17.8304 73.1279 18.0711 73.1279 18.3682V20.9189C73.1279 21.0492 73.192 21.1752 73.3082 21.2733L74.2032 22.0284C74.4933 22.2731 75.0088 22.2731 75.2987 22.0284L76.1938 21.2733C76.31 21.1752 76.3742 21.0492 76.3742 20.9189ZM77.4031 25.1572H79.9537C80.2508 25.1572 80.4916 24.8312 80.4916 24.4291V22.6391C80.4916 22.2369 80.2508 21.9109 79.9537 21.9109H77.4031C77.2727 21.9109 77.1468 21.9751 77.0487 22.0912L76.2935 22.9863C76.0488 23.2763 76.0488 23.7918 76.2935 24.0818L77.0487 24.9768C77.1468 25.0931 77.2727 25.1572 77.4031 25.1572ZM73.1279 26.0016V28.5523C73.1279 28.8493 73.4539 29.0901 73.856 29.0901H75.646C76.0482 29.0901 76.3742 28.8493 76.3742 28.5523V26.0016C76.3742 25.8712 76.31 25.7453 76.1938 25.6472L75.2988 24.8921C75.0088 24.6474 74.4933 24.6474 74.2033 24.8921L73.3083 25.6472C73.1919 25.7454 73.1279 25.8712 73.1279 26.0016Z" fill="#597B91"/>
</g>
<g filter="url(#filter3_f_167_1532)">
<path d="M120.368 47.0094C123.704 48.9591 123.662 53.7949 120.292 55.6863L60.146 89.4469C56.7962 91.3272 52.6655 88.8846 52.6989 85.0433L53.2954 16.4808C53.3288 12.6396 57.5014 10.2692 60.818 12.2075L120.368 47.0094Z" fill="white"/>
<path d="M119.611 48.3044C121.946 49.6693 121.917 53.0543 119.558 54.3783L59.4118 88.1389C57.067 89.4551 54.1754 87.7452 54.1988 85.0564L54.7953 16.4939C54.8187 13.805 57.7396 12.1458 60.0612 13.5025L119.611 48.3044Z" stroke="white" stroke-opacity="0.8" stroke-width="3"/>
</g>
<g filter="url(#filter4_i_167_1532)">
<path d="M56.0223 50.0155L88.5719 69.2686L55.6234 87.8308L56.0223 50.0155Z" fill="#F43C04" fill-opacity="0.7"/>
</g>
<path d="M56.1325 86.9701L56.5132 50.8868L87.572 69.2581L56.1325 86.9701Z" stroke="white"/>
<g filter="url(#filter5_i_167_1532)">
<path d="M88.0234 31.9986L120.573 51.2517L87.6245 69.8139L88.0234 31.9986Z" fill="#F43C04" fill-opacity="0.7"/>
</g>
<path d="M88.1336 68.9532L88.5142 32.8699L119.573 51.2412L88.1336 68.9532Z" stroke="white"/>
<g filter="url(#filter6_i_167_1532)">
<path d="M56.5859 13.4225L88.5448 32.1257L56.0227 50.4476L56.5859 13.4225Z" fill="#F43C04" fill-opacity="0.7"/>
</g>
<path d="M56.5359 49.5846L57.0729 14.2868L87.5408 32.1174L56.5359 49.5846Z" stroke="white"/>
<g opacity="0.15">
<g filter="url(#filter7_i_167_1532)">
<path d="M87.9823 32.0936L88.0831 69.1228L55.7923 50.3961L87.9823 32.0936Z" fill="white"/>
</g>
<path d="M56.7964 50.4004L87.4846 32.9517L87.5807 68.2535L56.7964 50.4004Z" stroke="white"/>
</g>
<g filter="url(#filter8_f_167_1532)">
<path d="M120.368 46.612C123.704 48.5618 123.662 53.3976 120.292 55.289L60.1461 89.0496C56.7963 90.9298 52.6655 88.4872 52.6989 84.646L53.2954 16.0835C53.3288 12.2422 57.5015 9.87189 60.8181 11.8101L120.368 46.612Z" fill="white"/>
<path d="M119.611 47.9071C121.946 49.2719 121.917 52.657 119.558 53.981L59.4119 87.7415C57.067 89.0577 54.1755 87.3479 54.1989 84.659L54.7954 16.0966C54.8188 13.4077 57.7396 11.7484 60.0612 13.1052L119.611 47.9071Z" stroke="white" stroke-opacity="0.8" stroke-width="3"/>
</g>
<g filter="url(#filter9_i_167_1532)">
<path d="M56.0224 49.6182L88.572 68.8713L55.6235 87.4335L56.0224 49.6182Z" fill="white"/>
</g>
<path d="M56.1326 86.5728L56.5132 50.4894L87.572 68.8608L56.1326 86.5728Z" stroke="white"/>
<g filter="url(#filter10_i_167_1532)">
<path d="M88.0235 31.6013L120.573 50.8544L87.6245 69.4166L88.0235 31.6013Z" fill="white"/>
</g>
<path d="M88.1337 68.5559L88.5143 32.4725L119.573 50.8439L88.1337 68.5559Z" stroke="white"/>
<g filter="url(#filter11_i_167_1532)">
<path d="M56.586 13.0252L88.5448 31.7283L56.0227 50.0503L56.586 13.0252Z" fill="white"/>
</g>
<path d="M56.5359 49.1873L57.0729 13.8895L87.5408 31.7201L56.5359 49.1873Z" stroke="white"/>
<g filter="url(#filter12_i_167_1532)">
<path d="M87.9823 31.6962L88.0831 68.7255L55.7924 49.9988L87.9823 31.6962Z" fill="#FF5DE2" fill-opacity="0.4"/>
</g>
<path d="M56.7965 50.0031L87.4847 32.5544L87.5808 67.8561L56.7965 50.0031Z" stroke="white"/>
<defs>
<filter id="filter0_b_167_1532" x="0.93" y="97.6" width="148.858" height="34.4" filterUnits="userSpaceOnUse" color-interpolation-filters="sRGB">
<feFlood flood-opacity="0" result="BackgroundImageFix"/>
<feGaussianBlur in="BackgroundImageFix" stdDeviation="2"/>
<feComposite in2="SourceAlpha" operator="in" result="effect1_backgroundBlur_167_1532"/>
<feBlend mode="normal" in="SourceGraphic" in2="effect1_backgroundBlur_167_1532" result="shape"/>
</filter>
<filter id="filter1_d_167_1532" x="0.93" y="101.6" width="148.858" height="34.4" filterUnits="userSpaceOnUse" color-interpolation-filters="sRGB">
<feFlood flood-opacity="0" result="BackgroundImageFix"/>
<feColorMatrix in="SourceAlpha" type="matrix" values="0 0 0 0 0 0 0 0 0 0 0 0 0 0 0 0 0 0 127 0" result="hardAlpha"/>
<feOffset dy="4"/>
<feGaussianBlur stdDeviation="2"/>
<feComposite in2="hardAlpha" operator="out"/>
<feColorMatrix type="matrix" values="0 0 0 0 0 0 0 0 0 0 0 0 0 0 0 0 0 0 0.25 0"/>
<feBlend mode="normal" in2="BackgroundImageFix" result="effect1_dropShadow_167_1532"/>
<feBlend mode="normal" in="SourceGraphic" in2="effect1_dropShadow_167_1532" result="shape"/>
</filter>
<filter id="filter2_d_167_1532" x="21" y="107" width="29" height="24" filterUnits="userSpaceOnUse" color-interpolation-filters="sRGB">
<feFlood flood-opacity="0" result="BackgroundImageFix"/>
<feColorMatrix in="SourceAlpha" type="matrix" values="0 0 0 0 0 0 0 0 0 0 0 0 0 0 0 0 0 0 127 0" result="hardAlpha"/>
<feOffset dy="4"/>
<feGaussianBlur stdDeviation="2"/>
<feComposite in2="hardAlpha" operator="out"/>
<feColorMatrix type="matrix" values="0 0 0 0 0 0 0 0 0 0 0 0 0 0 0 0 0 0 0.25 0"/>
<feBlend mode="normal" in2="BackgroundImageFix" result="effect1_dropShadow_167_1532"/>
<feBlend mode="normal" in="SourceGraphic" in2="effect1_dropShadow_167_1532" result="shape"/>
</filter>
<filter id="filter3_f_167_1532" x="48.6987" y="7.517" width="78.1463" height="86.5773" filterUnits="userSpaceOnUse" color-interpolation-filters="sRGB">
<feFlood flood-opacity="0" result="BackgroundImageFix"/>
<feBlend mode="normal" in="SourceGraphic" in2="BackgroundImageFix" result="shape"/>
<feGaussianBlur stdDeviation="2" result="effect1_foregroundBlur_167_1532"/>
</filter>
<filter id="filter4_i_167_1532" x="55.6234" y="50.0155" width="32.9485" height="41.8153" filterUnits="userSpaceOnUse" color-interpolation-filters="sRGB">
<feFlood flood-opacity="0" result="BackgroundImageFix"/>
<feBlend mode="normal" in="SourceGraphic" in2="BackgroundImageFix" result="shape"/>
<feColorMatrix in="SourceAlpha" type="matrix" values="0 0 0 0 0 0 0 0 0 0 0 0 0 0 0 0 0 0 127 0" result="hardAlpha"/>
<feOffset dy="4"/>
<feGaussianBlur stdDeviation="2"/>
<feComposite in2="hardAlpha" operator="arithmetic" k2="-1" k3="1"/>
<feColorMatrix type="matrix" values="0 0 0 0 0 0 0 0 0 0 0 0 0 0 0 0 0 0 0.25 0"/>
<feBlend mode="normal" in2="shape" result="effect1_innerShadow_167_1532"/>
</filter>
<filter id="filter5_i_167_1532" x="87.6245" y="31.9986" width="32.9485" height="41.8153" filterUnits="userSpaceOnUse" color-interpolation-filters="sRGB">
<feFlood flood-opacity="0" result="BackgroundImageFix"/>
<feBlend mode="normal" in="SourceGraphic" in2="BackgroundImageFix" result="shape"/>
<feColorMatrix in="SourceAlpha" type="matrix" values="0 0 0 0 0 0 0 0 0 0 0 0 0 0 0 0 0 0 127 0" result="hardAlpha"/>
<feOffset dy="4"/>
<feGaussianBlur stdDeviation="2"/>
<feComposite in2="hardAlpha" operator="arithmetic" k2="-1" k3="1"/>
<feColorMatrix type="matrix" values="0 0 0 0 0 0 0 0 0 0 0 0 0 0 0 0 0 0 0.25 0"/>
<feBlend mode="normal" in2="shape" result="effect1_innerShadow_167_1532"/>
</filter>
<filter id="filter6_i_167_1532" x="56.0227" y="13.4225" width="32.5221" height="41.0251" filterUnits="userSpaceOnUse" color-interpolation-filters="sRGB">
<feFlood flood-opacity="0" result="BackgroundImageFix"/>
<feBlend mode="normal" in="SourceGraphic" in2="BackgroundImageFix" result="shape"/>
<feColorMatrix in="SourceAlpha" type="matrix" values="0 0 0 0 0 0 0 0 0 0 0 0 0 0 0 0 0 0 127 0" result="hardAlpha"/>
<feOffset dy="4"/>
<feGaussianBlur stdDeviation="2"/>
<feComposite in2="hardAlpha" operator="arithmetic" k2="-1" k3="1"/>
<feColorMatrix type="matrix" values="0 0 0 0 0 0 0 0 0 0 0 0 0 0 0 0 0 0 0.25 0"/>
<feBlend mode="normal" in2="shape" result="effect1_innerShadow_167_1532"/>
</filter>
<filter id="filter7_i_167_1532" x="55.7923" y="32.0936" width="32.2907" height="41.0293" filterUnits="userSpaceOnUse" color-interpolation-filters="sRGB">
<feFlood flood-opacity="0" result="BackgroundImageFix"/>
<feBlend mode="normal" in="SourceGraphic" in2="BackgroundImageFix" result="shape"/>
<feColorMatrix in="SourceAlpha" type="matrix" values="0 0 0 0 0 0 0 0 0 0 0 0 0 0 0 0 0 0 127 0" result="hardAlpha"/>
<feOffset dy="4"/>
<feGaussianBlur stdDeviation="2"/>
<feComposite in2="hardAlpha" operator="arithmetic" k2="-1" k3="1"/>
<feColorMatrix type="matrix" values="0 0 0 0 0 0 0 0 0 0 0 0 0 0 0 0 0 0 0.25 0"/>
<feBlend mode="normal" in2="shape" result="effect1_innerShadow_167_1532"/>
</filter>
<filter id="filter8_f_167_1532" x="48.6987" y="7.11966" width="78.1463" height="86.5773" filterUnits="userSpaceOnUse" color-interpolation-filters="sRGB">
<feFlood flood-opacity="0" result="BackgroundImageFix"/>
<feBlend mode="normal" in="SourceGraphic" in2="BackgroundImageFix" result="shape"/>
<feGaussianBlur stdDeviation="2" result="effect1_foregroundBlur_167_1532"/>
</filter>
<filter id="filter9_i_167_1532" x="55.6235" y="49.6182" width="32.9485" height="41.8153" filterUnits="userSpaceOnUse" color-interpolation-filters="sRGB">
<feFlood flood-opacity="0" result="BackgroundImageFix"/>
<feBlend mode="normal" in="SourceGraphic" in2="BackgroundImageFix" result="shape"/>
<feColorMatrix in="SourceAlpha" type="matrix" values="0 0 0 0 0 0 0 0 0 0 0 0 0 0 0 0 0 0 127 0" result="hardAlpha"/>
<feOffset dy="4"/>
<feGaussianBlur stdDeviation="2"/>
<feComposite in2="hardAlpha" operator="arithmetic" k2="-1" k3="1"/>
<feColorMatrix type="matrix" values="0 0 0 0 0 0 0 0 0 0 0 0 0 0 0 0 0 0 0.25 0"/>
<feBlend mode="normal" in2="shape" result="effect1_innerShadow_167_1532"/>
</filter>
<filter id="filter10_i_167_1532" x="87.6245" y="31.6013" width="32.9485" height="41.8153" filterUnits="userSpaceOnUse" color-interpolation-filters="sRGB">
<feFlood flood-opacity="0" result="BackgroundImageFix"/>
<feBlend mode="normal" in="SourceGraphic" in2="BackgroundImageFix" result="shape"/>
<feColorMatrix in="SourceAlpha" type="matrix" values="0 0 0 0 0 0 0 0 0 0 0 0 0 0 0 0 0 0 127 0" result="hardAlpha"/>
<feOffset dy="4"/>
<feGaussianBlur stdDeviation="2"/>
<feComposite in2="hardAlpha" operator="arithmetic" k2="-1" k3="1"/>
<feColorMatrix type="matrix" values="0 0 0 0 0 0 0 0 0 0 0 0 0 0 0 0 0 0 0.25 0"/>
<feBlend mode="normal" in2="shape" result="effect1_innerShadow_167_1532"/>
</filter>
<filter id="filter11_i_167_1532" x="56.0227" y="13.0252" width="32.5221" height="41.0251" filterUnits="userSpaceOnUse" color-interpolation-filters="sRGB">
<feFlood flood-opacity="0" result="BackgroundImageFix"/>
<feBlend mode="normal" in="SourceGraphic" in2="BackgroundImageFix" result="shape"/>
<feColorMatrix in="SourceAlpha" type="matrix" values="0 0 0 0 0 0 0 0 0 0 0 0 0 0 0 0 0 0 127 0" result="hardAlpha"/>
<feOffset dy="4"/>
<feGaussianBlur stdDeviation="2"/>
<feComposite in2="hardAlpha" operator="arithmetic" k2="-1" k3="1"/>
<feColorMatrix type="matrix" values="0 0 0 0 0 0 0 0 0 0 0 0 0 0 0 0 0 0 0.25 0"/>
<feBlend mode="normal" in2="shape" result="effect1_innerShadow_167_1532"/>
</filter>
<filter id="filter12_i_167_1532" x="55.7924" y="31.6962" width="32.2907" height="41.0293" filterUnits="userSpaceOnUse" color-interpolation-filters="sRGB">
<feFlood flood-opacity="0" result="BackgroundImageFix"/>
<feBlend mode="normal" in="SourceGraphic" in2="BackgroundImageFix" result="shape"/>
<feColorMatrix in="SourceAlpha" type="matrix" values="0 0 0 0 0 0 0 0 0 0 0 0 0 0 0 0 0 0 127 0" result="hardAlpha"/>
<feOffset dy="4"/>
<feGaussianBlur stdDeviation="2"/>
<feComposite in2="hardAlpha" operator="arithmetic" k2="-1" k3="1"/>
<feColorMatrix type="matrix" values="0 0 0 0 0 0 0 0 0 0 0 0 0 0 0 0 0 0 0.25 0"/>
<feBlend mode="normal" in2="shape" result="effect1_innerShadow_167_1532"/>
</filter>
<clipPath id="clip0_167_1532">
<rect width="49" height="49" fill="white" transform="translate(63.2868 1)"/>
</clipPath>
</defs>
</svg>
