<svg width="107" height="107" viewBox="0 0 107 107" fill="none" xmlns="http://www.w3.org/2000/svg">
<path d="M68.1631 65.4346C67.5088 65.2206 63.3728 63.3563 65.9573 55.5001H65.9203C72.6571 48.5615 77.8055 37.3965 77.8055 26.4043C77.8055 9.50242 66.5664 0.641998 53.5041 0.641998C40.4337 0.641998 29.2563 9.4983 29.2563 26.4043C29.2563 37.4418 34.3758 48.6521 41.1539 55.5741C43.7959 62.5045 39.0715 65.0766 38.0838 65.4387C24.4042 70.3854 8.35425 79.4022 8.35425 88.3038V91.6414C8.35425 103.769 31.8696 106.527 53.6317 106.527C75.4268 106.527 98.6458 103.769 98.6458 91.6414V88.3038C98.6458 79.1347 82.5176 70.1879 68.1631 65.4346Z" fill="#00FFFF" fill-opacity="0.5"/>
</svg>
