<svg width="44" height="44" viewBox="0 0 44 44" fill="none" xmlns="http://www.w3.org/2000/svg">
<g clip-path="url(#clip0_324_10)">
<path d="M25.7518 10.5094L25.7518 10.5094L25.7548 10.5063C25.9009 10.3551 26.0756 10.2345 26.2688 10.1515C26.4619 10.0685 26.6697 10.0248 26.8799 10.023C27.0902 10.0212 27.2987 10.0612 27.4932 10.1409C27.6878 10.2205 27.8646 10.338 28.0133 10.4867L28.1882 10.3117L28.0133 10.4867C28.1619 10.6354 28.2795 10.8121 28.3591 11.0067C28.4387 11.2013 28.4788 11.4098 28.477 11.62C28.4751 11.8303 28.4315 12.038 28.3485 12.2312C28.2655 12.4244 28.1449 12.5991 27.9936 12.7452L27.9936 12.7451L27.9906 12.7482L18.9156 21.8232L18.7388 22L18.9156 22.1768L27.989 31.2502C28.2765 31.5486 28.4355 31.9479 28.4319 32.3624C28.4283 32.7775 28.2618 33.1746 27.9682 33.4682C27.6747 33.7618 27.2775 33.9283 26.8624 33.9319C26.4479 33.9355 26.0486 33.7764 25.7502 33.4889L15.3806 23.1194C15.0838 22.8225 14.9171 22.4198 14.9171 22C14.9171 21.5801 15.0838 21.1775 15.3806 20.8806C15.3806 20.8806 15.3806 20.8806 15.3806 20.8806L25.7518 10.5094Z" fill="#FF5DE2" stroke="white" stroke-width="0.5"/>
</g>
<defs>
<clipPath id="clip0_324_10">
<rect width="44" height="44" fill="white"/>
</clipPath>
</defs>
</svg>
