<svg width="30" height="30" viewBox="0 0 30 30" fill="none" xmlns="http://www.w3.org/2000/svg">
<path d="M13.7438 5.85V10.7C13.7438 11.1016 13.6645 11.4992 13.5104 11.8701C13.3563 12.2409 13.1306 12.5777 12.846 12.8611C12.5615 13.1445 12.2238 13.3689 11.8523 13.5214C11.4808 13.674 11.0828 13.7516 10.6813 13.75H5.85626C5.45576 13.7524 5.0589 13.674 4.68945 13.5193C4.32001 13.3647 3.9856 13.137 3.70626 12.85C3.42322 12.5683 3.199 12.2332 3.04664 11.8641C2.89428 11.495 2.81682 11.0993 2.81876 10.7V5.8625C2.81875 5.05575 3.13838 4.28186 3.70766 3.71023C4.27695 3.1386 5.04952 2.81581 5.85626 2.8125H10.6938C11.0938 2.81288 11.4899 2.89263 11.8589 3.04711C12.228 3.2016 12.5627 3.42776 12.8438 3.7125C13.1287 3.9908 13.3551 4.32327 13.5096 4.69035C13.6642 5.05743 13.7438 5.45171 13.7438 5.85ZM27.1813 5.8625V10.7C27.1748 11.5047 26.8531 12.2749 26.2852 12.8451C25.7173 13.4153 24.9485 13.7402 24.1438 13.75H19.2938C18.4853 13.7451 17.7101 13.4269 17.1313 12.8625C16.8484 12.5781 16.6244 12.2407 16.4721 11.8696C16.3198 11.4986 16.2422 11.1011 16.2438 10.7V5.8625C16.242 5.46211 16.3208 5.06545 16.4754 4.69611C16.63 4.32677 16.8573 3.99227 17.1438 3.7125C17.4248 3.42776 17.7595 3.2016 18.1286 3.04711C18.4977 2.89263 18.8937 2.81288 19.2938 2.8125H24.1313C24.9382 2.81903 25.7101 3.14247 26.2807 3.71305C26.8513 4.28362 27.1747 5.05561 27.1813 5.8625ZM27.1813 19.3V24.1375C27.1748 24.9422 26.8531 25.7124 26.2852 26.2826C25.7173 26.8528 24.9485 27.1777 24.1438 27.1875H19.2938C18.4801 27.1958 17.6953 26.8863 17.1063 26.325C16.8223 26.0414 16.5976 25.7042 16.4452 25.3329C16.2928 24.9617 16.2159 24.5638 16.2188 24.1625V19.325C16.2171 18.9246 16.2959 18.528 16.4505 18.1587C16.6051 17.7893 16.8324 17.4548 17.1188 17.175C17.3999 16.8903 17.7346 16.6642 18.1036 16.5097C18.4727 16.3552 18.8687 16.2755 19.2688 16.275H24.1063C24.9131 16.2815 25.6851 16.605 26.2557 17.1755C26.8263 17.7461 27.1497 18.5181 27.1563 19.325L27.1813 19.3ZM13.7438 19.3125V24.15C13.7339 24.9569 13.4073 25.7275 12.8344 26.2958C12.2615 26.864 11.4882 27.1843 10.6813 27.1875H5.85626C5.45691 27.1892 5.06118 27.1117 4.69191 26.9597C4.32263 26.8076 3.98713 26.5839 3.70474 26.3015C3.42235 26.0191 3.19867 25.6836 3.04661 25.3144C2.89455 24.9451 2.81711 24.5494 2.81876 24.15V19.3125C2.82198 18.5056 3.14225 17.7323 3.71049 17.1593C4.27873 16.5864 5.0494 16.2598 5.85626 16.25H10.6938C11.5043 16.257 12.2801 16.5799 12.8563 17.15C13.4264 17.7251 13.7455 18.5027 13.7438 19.3125Z" fill="url(#paint0_radial_247_37)" fill-opacity="0.7"/>
<defs>
<radialGradient id="paint0_radial_247_37" cx="0" cy="0" r="1" gradientUnits="userSpaceOnUse" gradientTransform="translate(15 15.0001) rotate(90) scale(12.1876 12.1813)">
<stop offset="0.295059" stop-color="#FF5DE2"/>
<stop offset="0.995059" stop-color="#00FFFF"/>
</radialGradient>
</defs>
</svg>
