<svg width="25" height="28" viewBox="0 0 25 28" fill="none" xmlns="http://www.w3.org/2000/svg">
<path d="M16.6277 0H15.2523C11.3627 0 9.41655 -8.06153e-08 8.20896 1.18885C7 2.37634 7 4.29013 7 8.115V18.935C7 22.7599 7 24.6737 8.20896 25.8612C9.41655 27.05 11.3627 27.05 15.2523 27.05H16.6277C20.5173 27.05 22.4634 27.05 23.671 25.8612C24.88 24.6737 24.88 22.7599 24.88 18.935V8.115C24.88 4.29013 24.88 2.37634 23.671 1.18885C22.4634 -8.06153e-08 20.5173 0 16.6277 0Z" fill="#00FFFF" fill-opacity="0.6"/>
<path opacity="0.6" d="M6.87609 7.81367C6.87609 5.6984 6.87609 4.15941 7.07 3H6.87609C3.6347 3 2.01332 3 1.00666 4.00674C1.63939e-07 5.01349 0 6.63501 0 9.87667V16.7533C0 19.995 1.63939e-07 21.6151 1.00666 22.6233C2.01332 23.63 3.6347 23.63 6.87609 23.63H7.07C6.87609 22.4706 6.87609 20.9316 6.87609 18.8163V12.2835V7.81367Z" fill="#00FFFF" fill-opacity="0.7"/>
<path fill-rule="evenodd" clip-rule="evenodd" d="M1.33425 12.2563C1.12022 12.4608 1 12.7381 1 13.0272C1 13.3163 1.12022 13.5936 1.33425 13.7981L4.38206 16.7072C4.59872 16.8999 4.88529 17.0048 5.18139 16.9998C5.47748 16.9948 5.75999 16.8804 5.9694 16.6805C6.1788 16.4806 6.29875 16.211 6.30398 15.9283C6.3092 15.6457 6.19929 15.3722 5.9974 15.1654L4.90019 14.1181H15.8571C16.1602 14.1181 16.4509 14.0032 16.6652 13.7986C16.8796 13.594 17 13.3165 17 13.0272C17 12.7379 16.8796 12.4604 16.6652 12.2558C16.4509 12.0512 16.1602 11.9363 15.8571 11.9363H4.90019L5.9974 10.889C6.1097 10.7892 6.19976 10.6687 6.26223 10.5349C6.3247 10.4011 6.35829 10.2566 6.36099 10.1102C6.3637 9.96368 6.33547 9.81818 6.27799 9.68234C6.22051 9.54651 6.13495 9.42311 6.02642 9.31952C5.91789 9.21593 5.78861 9.13426 5.64629 9.0794C5.50398 9.02453 5.35154 8.99759 5.19808 9.00017C5.04462 9.00275 4.89328 9.03482 4.75308 9.09444C4.61288 9.15406 4.4867 9.24003 4.38206 9.34721L1.33425 12.2563Z" fill="white" fill-opacity="0.6"/>
</svg>
